# xmcd
#
# Track frame offsets:
#	150
#	17962
#	34574
#	50661
#	64723
#	85235
#	100872
#	116659
#	131021
#	143733
#	155920
#	170573
#	188610
#	204472
#
# Disc length: 2951 seconds
#
# Revision: 1
# Processed by: cddbd v1.5.2PL0 Copyright (c) Steve Scherf et al.
# Submitted via: EasyCDDAExtractor 7.0.3.1
#
DISCID=c30b850e
DTITLE=Various Artist - HITZ Country 2011 vol-3
DYEAR=2011
DGENRE=country
TTITLE0=Keith Urban - Without You
TTITLE1=Chris Young - Tomorrow
TTITLE2=Ronnie Dunn - Bleed Red
TTITLE3=Toby Keith - Somewhere Else
TTITLE4=Sugarland - Tonight
TTITLE5=Carter's Chord - A Little Less Comfortable
TTITLE6=Billy Currington - Love Done Gone
TTITLE7=Dierks Bentley - Am I the Only One
TTITLE8=Jake Owen - Barefoot Bluejean Night
TTITLE9=Bradley Gaskin - Mr. Bartender
TTITLE10=Ashton Shepherd - Where Country Grows
TTITLE11=Josh Kelley - Gone Like That
TTITLE12=Trace Adkins - Just Fishin
TTITLE13=Luke Bryan - Country Girl (Shake it for Me)
EXTD=
EXTT0=
EXTT1=
EXTT2=
EXTT3=
EXTT4=
EXTT5=
EXTT6=
EXTT7=
EXTT8=
EXTT9=
EXTT10=
EXTT11=
EXTT12=
EXTT13=
PLAYORDER=
